<svg width="250" height="48" viewBox="0 0 250 48" fill="none" xmlns="http://www.w3.org/2000/svg">
<path fill-rule="evenodd" clip-rule="evenodd" d="M40.2426 15.0823L31.1401 0L22.0376 15.0823L31.1401 20.4689L40.2426 15.0823ZM31.1401 22.2643L22.0376 16.8778L31.1401 29.6858L40.2426 16.8778L31.1401 22.2643Z" fill="white"/>
<path fill-rule="evenodd" clip-rule="evenodd" d="M2.75471 41.8952C1.1977 41.8952 0 43.3316 0 44.8878C0 46.4438 1.1977 47.8804 2.75471 47.8804C3.71286 47.8804 4.67101 47.5212 5.1501 46.5636V46.4438C5.1501 46.3242 5.03033 46.3242 5.03033 46.3242C4.91056 46.3242 4.79078 46.3242 4.67101 46.4438C4.19194 47.162 3.59309 47.5212 2.63494 47.5212C1.31747 47.5212 0.479078 46.4438 0.359309 45.2468H5.26987C5.38963 45.2468 5.5094 45.1272 5.5094 45.0074C5.62918 43.3316 4.43148 41.7756 2.75471 41.8952ZM0.479078 44.6484C0.598848 43.4514 1.557 42.374 2.75471 42.374C4.07216 42.374 4.91056 43.4514 5.03033 44.6484H0.479078ZM17.2469 41.8952C16.4084 41.8952 15.6899 42.374 15.2107 43.0922V37.3466C15.2107 37.2269 15.091 37.1072 14.9712 37.1072C14.8514 37.1072 14.7317 37.2269 14.7317 37.3466V47.5212C14.7317 47.6408 14.8514 47.7606 14.9712 47.7606C15.091 47.7606 15.2107 47.6408 15.2107 47.5212V45.2468C15.2107 45.2468 15.2107 45.1272 15.2107 45.0074C15.091 43.6908 15.8096 42.374 17.2469 42.374C18.4445 42.374 19.0434 43.4514 19.0434 44.409V47.5212C19.0434 47.6408 19.1632 47.7606 19.2829 47.7606C19.4027 47.7606 19.5224 47.6408 19.5224 47.5212V44.409C19.5224 43.0922 18.6841 41.8952 17.2469 41.8952ZM11.4979 42.015H10.1804V40.0998C10.1804 39.98 10.0607 39.8604 9.94088 39.8604C9.82111 39.8604 9.70134 39.98 9.70134 40.0998V42.015H8.50364C8.38387 42.015 8.26411 42.1346 8.26411 42.2544C8.26411 42.374 8.38387 42.4938 8.50364 42.4938H9.70134V47.6408C9.70134 47.7606 9.82111 47.8804 9.94088 47.8804C10.0607 47.8804 10.1804 47.7606 10.1804 47.6408V42.4938H11.4979C11.6177 42.4938 11.7374 42.374 11.7374 42.2544C11.7374 42.1346 11.6177 42.015 11.4979 42.015ZM39.2844 41.8952C37.6076 41.8952 36.5298 43.3316 36.5298 44.8878C36.5298 46.4438 37.7274 47.8804 39.2844 47.8804C40.2426 47.8804 41.2008 47.5212 41.6798 46.5636V46.4438C41.6798 46.3242 41.5601 46.3242 41.5601 46.3242C41.4403 46.3242 41.3206 46.3242 41.2008 46.4438C40.7216 47.162 40.1228 47.5212 39.1646 47.5212C37.8472 47.5212 37.0088 46.4438 36.8891 45.2468H41.9194C42.0391 45.2468 42.1589 45.1272 42.1589 45.0074C42.1589 43.3316 40.9613 41.7756 39.2844 41.8952ZM37.0088 44.6484C37.1286 43.4514 38.0868 42.374 39.2844 42.374C40.4821 42.374 41.4403 43.4514 41.5601 44.6484H37.0088ZM60.0046 41.8952C59.0465 41.8952 58.208 42.4938 57.8488 43.4514C57.4895 42.4938 56.7708 41.8952 55.8127 41.8952C54.9743 41.8952 54.2557 42.374 53.7766 43.0922V42.2544C53.7766 42.1346 53.6568 42.015 53.537 42.015C53.4173 42.015 53.2975 42.1346 53.2975 42.2544V47.5212C53.2975 47.6408 53.4173 47.7606 53.537 47.7606C53.6568 47.7606 53.7766 47.6408 53.7766 47.5212V45.1272C53.7766 43.571 54.3755 42.374 55.8127 42.374C57.0103 42.374 57.6092 43.4514 57.6092 44.409V47.5212C57.6092 47.6408 57.729 47.7606 57.8488 47.7606C57.9685 47.7606 58.0883 47.6408 58.0883 47.5212V45.1272C58.0883 43.9302 58.6872 42.374 60.1244 42.374C61.322 42.374 61.921 43.4514 61.921 44.409V47.5212C61.921 47.6408 62.0407 47.7606 62.1605 47.7606C62.2802 47.7606 62.4 47.6408 62.4 47.5212V44.409C62.2802 43.0922 61.4418 41.8952 60.0046 41.8952ZM33.8948 42.015C33.0564 42.015 32.2181 42.6134 31.8587 43.3316V42.2544C31.8587 42.1346 31.7389 42.015 31.6192 42.015C31.4994 42.015 31.3796 42.1346 31.3796 42.2544V47.5212C31.3796 47.6408 31.4994 47.7606 31.6192 47.7606C31.7389 47.7606 31.8587 47.6408 31.8587 47.5212V45.2468C31.8587 43.9302 32.4576 42.7332 33.8948 42.4938C34.0146 42.4938 34.1344 42.374 34.1344 42.2544C34.1344 42.015 34.0146 42.015 33.8948 42.015ZM25.3912 41.8952C23.7144 41.8952 22.6364 43.3316 22.6364 44.8878C22.6364 46.4438 23.8342 47.8804 25.3912 47.8804C26.3494 47.8804 27.3074 47.5212 27.7866 46.5636V46.4438C27.7866 46.3242 27.6668 46.3242 27.6668 46.3242C27.5471 46.3242 27.4272 46.3242 27.3074 46.4438C26.8284 47.162 26.2296 47.5212 25.2714 47.5212C23.9539 47.5212 23.1156 46.4438 22.9957 45.2468H27.9064C28.0261 45.2468 28.1459 45.1272 28.1459 45.0074C28.1459 43.3316 26.9482 41.7756 25.3912 41.8952ZM23.1156 44.6484C23.2354 43.4514 24.1934 42.374 25.3912 42.374C26.7086 42.374 27.5471 43.4514 27.6668 44.6484H23.1156ZM49.8242 42.015C49.7044 42.015 49.4648 42.1346 49.4648 42.2544V44.2892C49.4648 45.965 49.1056 47.5212 47.4288 47.5212C46.2311 47.5212 45.6323 46.4438 45.6323 45.4862V42.374C45.6323 42.2544 45.5125 42.1346 45.3928 42.1346C45.273 42.1346 45.1531 42.2544 45.1531 42.374V45.4862C45.1531 46.803 45.9916 48 47.4288 48C48.387 48 49.1056 47.4014 49.4648 46.6832V47.6408C49.4648 47.7606 49.5846 47.8804 49.7044 47.8804C49.8242 47.8804 49.944 47.7606 49.944 47.6408V42.374C49.944 42.1346 49.944 42.015 49.8242 42.015Z" fill="white"/>
<path fill-rule="evenodd" clip-rule="evenodd" d="M134.2 25.771L133.12 24.9161H129.16L128.2 25.771L128.56 22.8397L125.56 24.3054L126.4 25.0381L128.92 26.8703H133.36L135.88 25.0381L136.72 24.3054L133.72 22.8397L134.2 25.771ZM132.64 22.1069H129.76L129.52 22.3512L129.28 23.9389H133.12L132.88 22.3512L132.64 22.1069ZM134.32 17.0993L135.52 16.7328L134.68 16.3664L134.32 17.0993ZM128.08 17.0993L127.72 16.3664L126.88 16.7328L128.08 17.0993ZM139.36 14.1679L137.92 11.9695L137.44 11.8473C137.44 11.8473 137.32 11.8473 137.32 11.7252L133.12 8.06107C133 7.93894 133 7.8168 133 7.69465C133 7.57252 133.12 7.45038 133.12 7.32824L142.96 0L135.16 2.9313H127.36L119.44 0L129.28 7.32824C129.4 7.45038 129.4 7.57252 129.4 7.69465C129.4 7.8168 129.4 7.93894 129.28 8.06107L125.08 11.7252L124.96 11.8473L118.96 13.6794H118.72L116.8 19.4198L118.6 25.771L124.96 23.5726L128.8 21.7404L129.04 21.4962L128.44 18.0763L124.36 16.855L128.08 15.1451L128.92 17.2213L129.4 18.3206L130 21.2519H132.4L133 18.3206L134.32 15.1451L137.2 16.4886L139.36 14.1679L137.08 16.4886L137.92 16.855L139.36 14.1679ZM117.76 8.91604L117.64 9.03817L118.12 9.40458C118.24 9.52672 118.24 9.64885 118.24 9.77099C118.24 9.89314 118.12 10.0153 118.12 10.1374L117.88 10.3817L118.36 10.8702C118.48 10.9924 118.48 11.1145 118.48 11.2366C118.48 11.3588 118.36 11.4809 118.36 11.6031L118.12 11.7252L118.96 12.7022L124.6 10.9924L128.32 7.8168L118.24 0.244274L117.04 3.9084L118 8.42748C118 8.67175 117.88 8.79389 117.76 8.91604ZM137.8 10.9924L143.44 12.7022L144.28 11.7252L144.04 11.6031C143.92 11.4809 143.92 11.3588 143.92 11.2366C143.92 11.1145 143.92 10.9924 144.04 10.8702L144.52 10.3817L144.28 10.1374C144.16 10.0153 144.16 9.89314 144.16 9.77099C144.16 9.64885 144.28 9.52672 144.28 9.40458L144.76 9.03817L144.64 8.91604C144.4 8.79389 144.4 8.67175 144.4 8.42748L145.36 3.78626L144.16 0.122137L134.08 7.69465L137.8 10.9924ZM143.68 13.5572H143.44L137.92 11.9695L139.36 14.1679L137.92 16.9771L133.84 18.1985L133.24 21.6184L133.6 21.8626L137.44 23.6946L143.08 25.771L143.8 26.0153L145.72 19.542L143.68 13.5572Z" fill="white"/>
<path fill-rule="evenodd" clip-rule="evenodd" d="M150.76 43.9694C150.4 43.7252 149.92 43.4809 149.44 43.2366C149.2 43.1146 148.84 42.9924 148.6 42.7481C148.24 42.3817 148.24 41.771 148.72 41.4046C149.32 41.0382 150.4 41.2824 150.52 42.0152H151.48C151.48 41.4046 151.24 40.916 150.76 40.6717C150.4 40.4275 149.92 40.3054 149.44 40.3054C146.92 40.3054 146.8 42.9924 148.12 43.7252C148.24 43.8473 149.56 44.458 150.04 44.8244C150.52 45.0688 150.64 45.6794 150.4 46.0458C150.16 46.4122 149.8 46.6565 149.32 46.6565C148.84 46.6565 148.36 46.2901 148.24 45.9236C148.24 45.8015 148.24 45.6794 148.24 45.6794H147.28C147.28 46.4122 147.52 46.7786 148 47.145C148.48 47.5115 148.96 47.6336 149.56 47.6336C151 47.6336 151.6 46.9008 151.84 46.0458C151.72 45.1908 151.48 44.458 150.76 43.9694ZM105.76 40.4275L104.92 43.2366H104.8L103.96 40.4275H102.4V47.5115H103.36V42.1374H103.48L104.32 44.9466L104.44 45.1908H105.16L105.28 44.9466L106.12 42.1374H106.24V47.5115H107.2V40.4275H105.76ZM135.16 40.4275L134.32 43.2366H134.2L133.36 40.4275H131.8V47.5115H132.76V42.1374H132.88L133.72 44.9466L133.84 45.1908H134.56L134.68 44.9466L135.52 42.1374H135.64V47.5115H136.6V40.4275H135.16ZM117.28 40.4275V41.2824H119.2V47.3893H120.16V41.2824H121.96V40.4275H117.28ZM127.12 40.4275H125.8L123.88 47.5115H124.84L125.44 45.4351H127.48L128.08 47.5115H129.04L127.12 40.4275ZM127.24 44.4581H125.8L126.52 41.6489H126.64L127.24 44.4581ZM142.84 40.4275H141.52L139.6 47.5115H140.56L141.16 45.4351H143.2L143.8 47.5115H144.76L142.84 40.4275ZM142.96 44.4581H141.52L142.24 41.6489H142.36L142.96 44.4581ZM111.52 44.3359H114.28V43.4809H111.52V41.6489H114.64V40.7939H110.44V48H114.76V47.023H111.52V44.3359ZM156.52 43.8473L159.64 40.5497H158.32L155.68 43.3588H155.56V40.5497H154.6V47.6336H155.56V44.5801C155.56 44.5801 155.56 44.5801 155.68 44.5801L158.68 47.7557H160C160 47.7557 160 47.7557 160 47.6336L156.52 43.8473Z" fill="white"/>
<path fill-rule="evenodd" clip-rule="evenodd" d="M224 6.48L229.64 12.12L232.88 8.88L224 0L215.12 8.88L218.36 12.12L224 6.48ZM212.84 11.16L209.6 14.4L212.84 17.64L216.08 14.4L212.84 11.16ZM224 22.32L218.36 16.68L215.12 19.92L224 28.8L232.88 19.92L229.64 16.68L224 22.32ZM235.16 11.16L231.92 14.4L235.16 17.64L238.4 14.4L235.16 11.16ZM221.6 13.56L221.36 13.8L220.64 14.4L224 17.64L227.36 14.28L224 11.04L221.6 13.56Z" fill="white"/>
<path fill-rule="evenodd" clip-rule="evenodd" d="M204.56 44.28C204.68 44.16 204.8 44.16 204.92 44.04C205.04 43.92 205.16 43.8 205.16 43.68C205.28 43.56 205.28 43.44 205.4 43.32C205.4 43.2 205.52 42.96 205.52 42.84C205.52 42.36 205.4 42 205.04 41.64C204.68 41.28 204.08 41.04 203.24 41.04H200V48H203.24C203.6 48 203.96 48 204.32 47.88C204.56 47.76 204.92 47.64 205.16 47.52C205.4 47.4 205.52 47.16 205.64 46.92C205.76 46.68 205.88 46.32 205.76 46.08C205.76 45.6 205.64 45.24 205.4 45C205.16 44.52 204.92 44.4 204.56 44.28ZM201.44 42.24H202.88C203.24 42.24 203.48 42.36 203.6 42.48C203.72 42.6 203.84 42.84 203.84 42.96C203.84 43.2 203.72 43.44 203.6 43.56C203.36 43.68 203.12 43.8 202.76 43.68H201.44V42.24ZM204.32 45.84C204.32 46.08 204.2 46.32 204.08 46.44C203.84 46.56 203.6 46.68 203.24 46.68H201.44V45.12H203.12C203.48 45.12 203.84 45.24 203.96 45.36C204.2 45.36 204.32 45.6 204.32 45.84ZM207.68 47.88H209.24V40.92H207.68V47.88ZM216.08 45.24L212.84 40.92H211.4V47.88H212.84V43.44L216.2 47.88H217.52V40.92H216.08V45.24ZM222.08 40.8L219.2 47.88H220.76L221.36 46.32H224.24L224.84 47.88H226.4L223.4 40.8H222.08ZM221.84 45L222.8 42.72L223.76 45H221.84ZM232.52 45.24L229.28 40.92H227.84V47.88H229.28V43.44L232.64 47.88H233.96V40.92H232.52V45.24ZM240.44 46.32C240.08 46.44 239.84 46.56 239.48 46.56C238.88 46.56 238.4 46.32 238.04 45.96C237.92 45.72 237.68 45.48 237.68 45.24C237.56 45 237.56 44.64 237.56 44.4C237.56 44.16 237.56 43.8 237.68 43.56C237.8 43.32 237.92 43.08 238.04 42.84C238.4 42.48 238.88 42.24 239.48 42.24C239.84 42.24 240.08 42.36 240.44 42.48C240.68 42.6 241.04 42.84 241.28 43.08L242.24 42C242.12 41.88 241.88 41.64 241.76 41.52C241.52 41.4 241.4 41.28 241.16 41.16C240.92 41.04 240.68 41.04 240.44 40.92C240.2 40.92 239.84 40.8 239.6 40.8C239.12 40.8 238.64 40.92 238.16 41.04C237.8 41.16 237.32 41.52 237.08 41.76C236.48 42.48 236.12 43.32 236.12 44.28C236.12 44.76 236.24 45.24 236.36 45.72C236.72 46.56 237.32 47.28 238.16 47.64C238.64 47.88 239.12 47.88 239.6 47.88C239.84 47.88 240.2 47.88 240.44 47.76C240.68 47.76 240.92 47.64 241.16 47.52C241.4 47.4 241.64 47.28 241.76 47.16C242 47.04 242.12 46.8 242.36 46.68L241.4 45.72C241.04 45.96 240.8 46.2 240.44 46.32ZM245.48 45.12H248.72V43.8H245.48V42.36H249.08V41.04H243.92V48H249.2V46.68H245.48V45.12Z" fill="white"/>
</svg>
