<svg width="204" height="40" viewBox="0 0 204 40" fill="none" xmlns="http://www.w3.org/2000/svg">
<path d="M104.588 32.3904C102.3 32.3904 100.362 32.1904 98.7761 31.7904C97.1901 31.3904 95.8951 30.8404 94.8913 30.1404C93.9076 29.4204 93.1848 28.5804 92.7231 27.6204C92.2814 26.6404 92.0605 25.5804 92.0605 24.4404V24.0504H97.5113V24.3204C97.5113 24.9004 97.6217 25.4404 97.8426 25.9404C98.0835 26.4204 98.475 26.8404 99.017 27.2004C99.5792 27.5604 100.312 27.8404 101.215 28.0404C102.119 28.2404 103.243 28.3404 104.588 28.3404C106.034 28.3404 107.218 28.2704 108.142 28.1304C109.065 27.9904 109.778 27.8004 110.28 27.5604C110.802 27.3004 111.153 27.0104 111.334 26.6904C111.535 26.3704 111.635 26.0304 111.635 25.6704C111.635 24.9904 111.354 24.4804 110.792 24.1404C110.25 23.7804 109.517 23.5204 108.593 23.3604C107.69 23.2004 106.656 23.1004 105.492 23.0604C104.327 23.0004 103.133 22.9304 101.908 22.8504C100.703 22.7704 99.5189 22.6504 98.3545 22.4904C97.1901 22.3104 96.1461 22.0104 95.2226 21.5904C94.3191 21.1704 93.5864 20.5904 93.0242 19.8504C92.4822 19.1104 92.2111 18.1504 92.2111 16.9704C92.2111 16.0904 92.4119 15.2704 92.8134 14.5104C93.2149 13.7304 93.8875 13.0604 94.8311 12.5004C95.7948 11.9204 97.0596 11.4604 98.6255 11.1204C100.212 10.7804 102.189 10.6104 104.558 10.6104C106.807 10.6104 108.714 10.8104 110.28 11.2104C111.846 11.6104 113.121 12.1604 114.104 12.8604C115.088 13.5404 115.801 14.3504 116.243 15.2904C116.704 16.2104 116.935 17.2004 116.935 18.2604V18.5004H111.485V18.2604C111.485 17.7804 111.364 17.3304 111.123 16.9104C110.902 16.4704 110.521 16.0904 109.979 15.7704C109.437 15.4304 108.724 15.1604 107.841 14.9604C106.957 14.7604 105.863 14.6604 104.558 14.6604C103.153 14.6604 101.998 14.7304 101.095 14.8704C100.192 15.0104 99.4888 15.2004 98.9869 15.4404C98.485 15.6804 98.1337 15.9504 97.9329 16.2504C97.7522 16.5504 97.6619 16.8704 97.6619 17.2104C97.6619 17.8104 97.9329 18.2604 98.475 18.5604C99.0371 18.8604 99.7699 19.0804 100.673 19.2204C101.597 19.3404 102.641 19.4204 103.805 19.4604C104.97 19.4804 106.154 19.5304 107.359 19.6104C108.583 19.6904 109.778 19.8204 110.942 20.0004C112.107 20.1804 113.141 20.4904 114.044 20.9304C114.968 21.3704 115.701 21.9704 116.243 22.7304C116.805 23.4704 117.086 24.4504 117.086 25.6704C117.086 26.5904 116.875 27.4604 116.453 28.2804C116.052 29.1004 115.359 29.8204 114.376 30.4404C113.412 31.0404 112.127 31.5204 110.521 31.8804C108.935 32.2204 106.957 32.3904 104.588 32.3904Z" fill="#B5BED6"/>
<path d="M129.566 32.3904C128.04 32.3904 126.715 32.2404 125.591 31.9404C124.487 31.6204 123.583 31.2004 122.881 30.6804C122.178 30.1404 121.656 29.5104 121.315 28.7904C120.974 28.0704 120.803 27.2904 120.803 26.4504C120.803 25.6904 120.923 25.0104 121.164 24.4104C121.425 23.7904 121.767 23.2504 122.188 22.7904C122.63 22.3304 123.122 21.9504 123.664 21.6504C124.226 21.3504 124.808 21.1504 125.41 21.0504V20.5704H119.026V17.1504H123.001C123.624 17.1504 124.065 17.0204 124.326 16.7604C124.587 16.5004 124.718 16.0604 124.718 15.4404V13.1604H128.603V17.0004H137.276V20.5704H127.789C127.067 20.9104 126.485 21.4004 126.043 22.0404C125.601 22.6604 125.38 23.5104 125.38 24.5904C125.38 25.8504 125.722 26.8104 126.404 27.4704C127.087 28.1104 128.141 28.4304 129.566 28.4304C131.052 28.4304 132.126 28.1404 132.789 27.5604C133.471 26.9804 133.812 26.2204 133.812 25.2804V24.9204H138.54V25.3704C138.54 26.4304 138.36 27.3904 137.998 28.2504C137.657 29.1104 137.115 29.8504 136.372 30.4704C135.649 31.0904 134.716 31.5704 133.571 31.9104C132.447 32.2304 131.112 32.3904 129.566 32.3904Z" fill="#B5BED6"/>
<path d="M147.598 32.3904C146.333 32.3904 145.249 32.2704 144.345 32.0304C143.462 31.8104 142.739 31.5004 142.177 31.1004C141.615 30.6804 141.203 30.1904 140.942 29.6304C140.681 29.0504 140.551 28.4304 140.551 27.7704C140.551 27.1104 140.681 26.5104 140.942 25.9704C141.203 25.4104 141.615 24.9304 142.177 24.5304C142.739 24.1104 143.462 23.7904 144.345 23.5704C145.249 23.3304 146.333 23.2104 147.598 23.2104C148.561 23.2104 149.425 23.2604 150.188 23.3604C150.95 23.4604 151.633 23.6004 152.235 23.7804C152.838 23.9404 153.39 24.1304 153.892 24.3504C154.394 24.5704 154.875 24.8004 155.337 25.0404V23.9304C155.337 22.7904 154.895 21.8504 154.012 21.1104C153.149 20.3504 151.804 19.9704 149.977 19.9704C149.133 19.9704 148.411 20.0404 147.808 20.1804C147.206 20.3204 146.694 20.5104 146.273 20.7504C145.871 20.9904 145.55 21.2604 145.309 21.5604C145.088 21.8604 144.927 22.1704 144.827 22.4904H140.099C140.199 21.6704 140.46 20.8904 140.882 20.1504C141.304 19.4104 141.916 18.7604 142.719 18.2004C143.522 17.6404 144.526 17.2004 145.731 16.8804C146.955 16.5404 148.391 16.3704 150.037 16.3704C151.723 16.3704 153.189 16.5604 154.434 16.9404C155.698 17.3204 156.732 17.8504 157.535 18.5304C158.359 19.2104 158.971 20.0304 159.372 20.9904C159.774 21.9304 159.975 22.9704 159.975 24.1104V27.3504C159.975 28.1104 160.336 28.4904 161.059 28.4904C161.36 28.4904 161.641 28.4504 161.902 28.3704V32.0604C161.561 32.1604 161.22 32.2404 160.878 32.3004C160.557 32.3604 160.196 32.3904 159.794 32.3904C158.529 32.3904 157.586 32.1104 156.963 31.5504C156.361 30.9904 156.06 30.2804 156.06 29.4204V29.3004H155.548V29.3904C155.548 29.7304 155.387 30.0804 155.066 30.4404C154.765 30.8004 154.293 31.1304 153.651 31.4304C153.008 31.7104 152.185 31.9404 151.181 32.1204C150.177 32.3004 148.983 32.3904 147.598 32.3904ZM149.374 29.1804C150.699 29.1804 151.834 29.0604 152.777 28.8204C153.721 28.5804 154.574 28.2904 155.337 27.9504V27.1104C154.514 26.7904 153.641 26.5204 152.717 26.3004C151.794 26.0604 150.679 25.9404 149.374 25.9404C148.551 25.9404 147.879 25.9804 147.357 26.0604C146.835 26.1404 146.423 26.2604 146.122 26.4204C145.841 26.5604 145.64 26.7304 145.52 26.9304C145.419 27.1304 145.369 27.3404 145.369 27.5604C145.369 27.8004 145.419 28.0204 145.52 28.2204C145.64 28.4004 145.841 28.5704 146.122 28.7304C146.423 28.8704 146.835 28.9804 147.357 29.0604C147.879 29.1404 148.551 29.1804 149.374 29.1804Z" fill="#B5BED6"/>
<path d="M183.148 32.0004H176.914L169.204 24.4704V32.0004H164.446V11.0004H169.204V23.7204L176.733 16.7604H182.846L174.565 24.0504L183.148 32.0004Z" fill="#B5BED6"/>
<path d="M204 24.4404C204 24.8604 203.97 25.3004 203.91 25.7604H187.588C187.889 26.7204 188.531 27.5004 189.515 28.1004C190.499 28.6804 191.844 28.9704 193.55 28.9704C194.434 28.9704 195.187 28.9104 195.809 28.7904C196.431 28.6504 196.953 28.4904 197.375 28.3104C197.817 28.1104 198.168 27.9004 198.429 27.6804C198.69 27.4604 198.911 27.2504 199.091 27.0504H203.669C203.468 27.5904 203.137 28.1804 202.675 28.8204C202.213 29.4404 201.571 30.0204 200.748 30.5604C199.945 31.0804 198.941 31.5204 197.736 31.8804C196.552 32.2204 195.126 32.3904 193.46 32.3904C191.753 32.3904 190.248 32.1804 188.943 31.7604C187.638 31.3404 186.544 30.7704 185.66 30.0504C184.797 29.3104 184.134 28.4604 183.673 27.5004C183.231 26.5204 183.01 25.4804 183.01 24.3804C183.01 23.2804 183.231 22.2504 183.673 21.2904C184.134 20.3104 184.807 19.4604 185.69 18.7404C186.574 18.0004 187.668 17.4204 188.973 17.0004C190.278 16.5804 191.794 16.3704 193.52 16.3704C195.247 16.3704 196.762 16.5804 198.067 17.0004C199.372 17.4204 200.457 18.0004 201.32 18.7404C202.203 19.4604 202.866 20.3104 203.307 21.2904C203.769 22.2704 204 23.3204 204 24.4404ZM193.52 19.8204C191.794 19.8204 190.438 20.1204 189.455 20.7204C188.471 21.3204 187.839 22.1104 187.557 23.0904H199.453C199.172 22.1104 198.539 21.3204 197.556 20.7204C196.592 20.1204 195.247 19.8204 193.52 19.8204Z" fill="#B5BED6"/>
<rect width="80.3058" height="40" rx="20" fill="#B5BED6"/>
<path d="M69.7655 14H57.7197V32H51.6968V14H33.628V8H51.6968H57.7197H69.7655V14ZM27.605 24.6L10.54 8V14V16.5V32H16.563V22.4L33.628 39V32V30.5V26H45.6738V20H33.628V14H27.605V24.6Z" fill="#E3EBFF"/>
</svg>
