<svg width="204" height="40" viewBox="0 0 204 40" fill="none" xmlns="http://www.w3.org/2000/svg">
<path d="M104.588 32.39C102.3 32.39 100.362 32.19 98.7761 31.79C97.1901 31.39 95.8951 30.84 94.8913 30.14C93.9076 29.42 93.1848 28.58 92.7231 27.62C92.2814 26.64 92.0605 25.58 92.0605 24.44V24.05H97.5113V24.32C97.5113 24.9 97.6217 25.44 97.8426 25.94C98.0835 26.42 98.475 26.84 99.017 27.2C99.5792 27.56 100.312 27.84 101.215 28.04C102.119 28.24 103.243 28.34 104.588 28.34C106.034 28.34 107.218 28.27 108.142 28.13C109.065 27.99 109.778 27.8 110.28 27.56C110.802 27.3 111.153 27.01 111.334 26.69C111.535 26.37 111.635 26.03 111.635 25.67C111.635 24.99 111.354 24.48 110.792 24.14C110.25 23.78 109.517 23.52 108.593 23.36C107.69 23.2 106.656 23.1 105.492 23.06C104.327 23 103.133 22.93 101.908 22.85C100.703 22.77 99.5189 22.65 98.3545 22.49C97.1901 22.31 96.1461 22.01 95.2226 21.59C94.3191 21.17 93.5864 20.59 93.0242 19.85C92.4822 19.11 92.2111 18.15 92.2111 16.97C92.2111 16.09 92.4119 15.27 92.8134 14.51C93.2149 13.73 93.8875 13.06 94.8311 12.5C95.7948 11.92 97.0596 11.46 98.6255 11.12C100.212 10.78 102.189 10.61 104.558 10.61C106.807 10.61 108.714 10.81 110.28 11.21C111.846 11.61 113.121 12.16 114.104 12.86C115.088 13.54 115.801 14.35 116.243 15.29C116.704 16.21 116.935 17.2 116.935 18.26V18.5H111.485V18.26C111.485 17.78 111.364 17.33 111.123 16.91C110.902 16.47 110.521 16.09 109.979 15.77C109.437 15.43 108.724 15.16 107.841 14.96C106.957 14.76 105.863 14.66 104.558 14.66C103.153 14.66 101.998 14.73 101.095 14.87C100.192 15.01 99.4888 15.2 98.9869 15.44C98.485 15.68 98.1337 15.95 97.9329 16.25C97.7522 16.55 97.6619 16.87 97.6619 17.21C97.6619 17.81 97.9329 18.26 98.475 18.56C99.0371 18.86 99.7699 19.08 100.673 19.22C101.597 19.34 102.641 19.42 103.805 19.46C104.97 19.48 106.154 19.53 107.359 19.61C108.583 19.69 109.778 19.82 110.942 20C112.107 20.18 113.141 20.49 114.044 20.93C114.968 21.37 115.701 21.97 116.243 22.73C116.805 23.47 117.086 24.45 117.086 25.67C117.086 26.59 116.875 27.46 116.453 28.28C116.052 29.1 115.359 29.82 114.376 30.44C113.412 31.04 112.127 31.52 110.521 31.88C108.935 32.22 106.957 32.39 104.588 32.39Z" fill="white"/>
<path d="M129.566 32.39C128.04 32.39 126.715 32.24 125.591 31.94C124.487 31.62 123.583 31.2 122.881 30.68C122.178 30.14 121.656 29.51 121.315 28.79C120.974 28.07 120.803 27.29 120.803 26.45C120.803 25.69 120.923 25.01 121.164 24.41C121.425 23.79 121.767 23.25 122.188 22.79C122.63 22.33 123.122 21.95 123.664 21.65C124.226 21.35 124.808 21.15 125.41 21.05V20.57H119.026V17.15H123.001C123.624 17.15 124.065 17.02 124.326 16.76C124.587 16.5 124.718 16.06 124.718 15.44V13.16H128.603V17H137.276V20.57H127.789C127.067 20.91 126.485 21.4 126.043 22.04C125.601 22.66 125.38 23.51 125.38 24.59C125.38 25.85 125.722 26.81 126.404 27.47C127.087 28.11 128.141 28.43 129.566 28.43C131.052 28.43 132.126 28.14 132.789 27.56C133.471 26.98 133.812 26.22 133.812 25.28V24.92H138.54V25.37C138.54 26.43 138.36 27.39 137.998 28.25C137.657 29.11 137.115 29.85 136.372 30.47C135.649 31.09 134.716 31.57 133.571 31.91C132.447 32.23 131.112 32.39 129.566 32.39Z" fill="white"/>
<path d="M147.598 32.39C146.333 32.39 145.249 32.27 144.345 32.03C143.462 31.81 142.739 31.5 142.177 31.1C141.615 30.68 141.203 30.19 140.942 29.63C140.681 29.05 140.551 28.43 140.551 27.77C140.551 27.11 140.681 26.51 140.942 25.97C141.203 25.41 141.615 24.93 142.177 24.53C142.739 24.11 143.462 23.79 144.345 23.57C145.249 23.33 146.333 23.21 147.598 23.21C148.561 23.21 149.425 23.26 150.187 23.36C150.95 23.46 151.633 23.6 152.235 23.78C152.838 23.94 153.39 24.13 153.892 24.35C154.394 24.57 154.875 24.8 155.337 25.04V23.93C155.337 22.79 154.895 21.85 154.012 21.11C153.149 20.35 151.804 19.97 149.977 19.97C149.133 19.97 148.411 20.04 147.808 20.18C147.206 20.32 146.694 20.51 146.273 20.75C145.871 20.99 145.55 21.26 145.309 21.56C145.088 21.86 144.927 22.17 144.827 22.49H140.099C140.199 21.67 140.46 20.89 140.882 20.15C141.304 19.41 141.916 18.76 142.719 18.2C143.522 17.64 144.526 17.2 145.731 16.88C146.955 16.54 148.391 16.37 150.037 16.37C151.723 16.37 153.189 16.56 154.434 16.94C155.698 17.32 156.732 17.85 157.535 18.53C158.359 19.21 158.971 20.03 159.372 20.99C159.774 21.93 159.975 22.97 159.975 24.11V27.35C159.975 28.11 160.336 28.49 161.059 28.49C161.36 28.49 161.641 28.45 161.902 28.37V32.06C161.561 32.16 161.219 32.24 160.878 32.3C160.557 32.36 160.196 32.39 159.794 32.39C158.529 32.39 157.586 32.11 156.963 31.55C156.361 30.99 156.06 30.28 156.06 29.42V29.3H155.548V29.39C155.548 29.73 155.387 30.08 155.066 30.44C154.765 30.8 154.293 31.13 153.651 31.43C153.008 31.71 152.185 31.94 151.181 32.12C150.177 32.3 148.983 32.39 147.598 32.39ZM149.374 29.18C150.699 29.18 151.834 29.06 152.777 28.82C153.721 28.58 154.574 28.29 155.337 27.95V27.11C154.514 26.79 153.641 26.52 152.717 26.3C151.794 26.06 150.679 25.94 149.374 25.94C148.551 25.94 147.879 25.98 147.357 26.06C146.835 26.14 146.423 26.26 146.122 26.42C145.841 26.56 145.64 26.73 145.52 26.93C145.419 27.13 145.369 27.34 145.369 27.56C145.369 27.8 145.419 28.02 145.52 28.22C145.64 28.4 145.841 28.57 146.122 28.73C146.423 28.87 146.835 28.98 147.357 29.06C147.879 29.14 148.551 29.18 149.374 29.18Z" fill="white"/>
<path d="M183.148 32H176.914L169.204 24.47V32H164.446V11H169.204V23.72L176.733 16.76H182.846L174.565 24.05L183.148 32Z" fill="white"/>
<path d="M204 24.44C204 24.86 203.97 25.3 203.91 25.76H187.588C187.889 26.72 188.531 27.5 189.515 28.1C190.499 28.68 191.844 28.97 193.55 28.97C194.434 28.97 195.186 28.91 195.809 28.79C196.431 28.65 196.953 28.49 197.375 28.31C197.816 28.11 198.168 27.9 198.429 27.68C198.69 27.46 198.911 27.25 199.091 27.05H203.669C203.468 27.59 203.137 28.18 202.675 28.82C202.213 29.44 201.571 30.02 200.748 30.56C199.945 31.08 198.941 31.52 197.736 31.88C196.552 32.22 195.126 32.39 193.46 32.39C191.753 32.39 190.248 32.18 188.943 31.76C187.638 31.34 186.544 30.77 185.66 30.05C184.797 29.31 184.134 28.46 183.673 27.5C183.231 26.52 183.01 25.48 183.01 24.38C183.01 23.28 183.231 22.25 183.673 21.29C184.134 20.31 184.807 19.46 185.69 18.74C186.574 18 187.668 17.42 188.973 17C190.278 16.58 191.794 16.37 193.52 16.37C195.247 16.37 196.762 16.58 198.067 17C199.372 17.42 200.457 18 201.32 18.74C202.203 19.46 202.866 20.31 203.307 21.29C203.769 22.27 204 23.32 204 24.44ZM193.52 19.82C191.794 19.82 190.438 20.12 189.455 20.72C188.471 21.32 187.839 22.11 187.557 23.09H199.453C199.172 22.11 198.539 21.32 197.556 20.72C196.592 20.12 195.247 19.82 193.52 19.82Z" fill="white"/>
<rect width="80.3058" height="40" rx="20" fill="#9230A1"/>
<path d="M69.7655 14H57.7197V32H51.6967V14H33.6279V8H51.6967H57.7197H69.7655V14ZM27.605 24.6L10.54 8V14V16.5V32H16.563V22.4L33.6279 39V32V30.5V26H45.6738V20H33.6279V14H27.605V24.6Z" fill="white"/>
</svg>
