<svg width="100" height="100" viewBox="0 0 100 100" fill="none" xmlns="http://www.w3.org/2000/svg">
<rect opacity="0.2" width="100" height="100" rx="20" fill="white"/>
<path opacity="0.2" d="M0 20C0 8.95431 8.95431 0 20 0H80C91.0457 0 100 8.9543 100 20V24H0V20Z" fill="white"/>
<path opacity="0.2" d="M5 37C5 35.3431 6.34315 34 8 34H92C93.6569 34 95 35.3431 95 37C95 38.6569 93.6569 40 92 40H8C6.34315 40 5 38.6569 5 37Z" fill="white"/>
<rect opacity="0.2" x="5" y="46" width="26" height="40" rx="6" fill="white"/>
<rect opacity="0.2" x="37" y="46" width="26" height="40" rx="6" fill="white"/>
<rect opacity="0.2" x="69" y="46" width="26" height="40" rx="6" fill="white"/>
<circle cx="18" cy="12" r="4" fill="white"/>
<circle cx="33" cy="12" r="4" fill="white"/>
<circle cx="48" cy="12" r="4" fill="white"/>
<path d="M9 79C9 77.3431 10.3431 76 12 76H24C25.6569 76 27 77.3431 27 79C27 80.6569 25.6569 82 24 82H12C10.3431 82 9 80.6569 9 79Z" fill="white"/>
<path d="M41 79C41 77.3431 42.3431 76 44 76H56C57.6569 76 59 77.3431 59 79C59 80.6569 57.6569 82 56 82H44C42.3431 82 41 80.6569 41 79Z" fill="white"/>
<path d="M73 79C73 77.3431 74.3431 76 76 76H88C89.6569 76 91 77.3431 91 79C91 80.6569 89.6569 82 88 82H76C74.3431 82 73 80.6569 73 79Z" fill="white"/>
</svg>
