<svg width="24" height="24" viewBox="0 0 24 24" fill="none" xmlns="http://www.w3.org/2000/svg">
<path d="M12 2C15.86 2 19 5.14 19 9C19 11.27 18.55 11.99 14.44 17.85C13.73 18.86 12.92 20.01 12 21.34C11.09 20.02 10.28 18.88 9.57 17.87C5.45 11.99 5 11.27 5 9C5 5.14 8.14 2 12 2ZM12 0C7.03 0 3 4.03 3 9C3 12.63 4.26 13.64 11.08 23.52C11.3 23.84 11.65 24 12 24C12.35 24 12.7 23.84 12.92 23.52C19.73 13.64 20.99 12.63 20.99 9C21 4.03 16.97 0 12 0ZM12 10.46C11.17 10.46 10.5 9.79 10.5 8.96C10.5 8.13 11.17 7.46 12 7.46C12.83 7.46 13.5 8.13 13.5 8.96C13.5 9.79 12.83 10.46 12 10.46Z" fill="#77B040"/>
</svg>
