<svg width="144" height="80" viewBox="0 0 144 80" fill="none" xmlns="http://www.w3.org/2000/svg">
<g clip-path="url(#clip0_146_3643)">
<path d="M28.348 18.6899C30.5717 20.6059 28.3406 21.9772 28.3406 21.9772C26.3096 20.3539 28.348 18.6899 28.348 18.6899ZM30.1677 21.5362C30.1677 21.5362 31.1683 22.5331 31.8947 21.1248C31.8947 21.1248 30.7607 20.265 30.1677 21.5362ZM23.4485 18.701C23.4485 18.701 24.2379 16.8776 22.018 16.6627C22.018 16.6627 21.4769 18.5824 23.4485 18.701ZM18.045 27.1324C18.045 27.1324 16.2735 25.8167 15.5842 28.2628C15.5842 28.2628 17.5113 29.3227 18.045 27.1324Z" fill="#77B040"/>
<path d="M61.7141 3.97295C61.7141 3.97295 59.6312 1.46391 62.9111 0C62.9111 0 64.6604 2.7907 61.7141 3.97295ZM68.2665 4.16937C65.7834 5.78894 67.8292 7.4641 67.8292 7.4641C70.0825 6.11507 68.2665 4.16937 68.2665 4.16937ZM56.5774 7.02307C56.5774 7.02307 58.26 5.01807 55.5434 3.90253C55.5434 3.90253 54.1388 6.12619 56.5774 7.02307ZM58.5046 3.24655C58.9382 5.17372 60.517 4.32503 60.517 4.32503C60.1983 2.60539 58.5046 3.24655 58.5046 3.24655ZM52.6601 7.23432C54.1054 8.58334 54.9319 6.99342 54.9319 6.99342C53.7015 5.75188 52.6601 7.23432 52.6601 7.23432ZM56.4699 13.0529C56.9999 11.6705 55.662 11.5445 55.662 11.5445C55.1469 12.749 56.4699 13.0529 56.4699 13.0529ZM52.5859 12.0745C54.6428 12.8046 54.78 10.8292 54.78 10.8292C52.9862 10.1103 52.5859 12.0745 52.5859 12.0745ZM65.8797 3.22802C64.149 2.27184 63.7376 4.01742 63.7376 4.01742C65.2349 4.92171 65.8797 3.22802 65.8797 3.22802ZM71.6316 7.19355C70.2196 5.81117 69.3561 7.38256 69.3561 7.38256C70.5568 8.65376 71.6316 7.19355 71.6316 7.19355ZM69.3524 12.9973C68.1293 10.7292 66.6432 12.4155 66.6432 12.4155C67.655 14.4649 69.3524 12.9973 69.3524 12.9973Z" fill="#77B040"/>
<path d="M9.61734 34.4816C3.99147 34.0962 0.478078 40.4484 0.0407576 48.5277C-0.396563 56.6071 2.66839 63.7005 8.06077 63.871C13.001 64.0304 17.1444 59.5015 17.6633 49.9472C18.1043 41.8679 14.5909 34.8226 9.61734 34.4816ZM14.3167 49.1689C13.9201 56.4292 11.1628 59.887 7.90882 59.7943C4.35466 59.6905 2.68321 54.6984 3.01305 48.5611C3.3429 42.4238 5.69627 37.5836 9.40609 37.843C12.686 38.0728 14.6502 43.0316 14.3167 49.1652V49.1689ZM20.8357 35.5008L20.7875 63.619L24.527 63.2892L24.2639 51.5556C26.8433 51.1035 31.4129 49.2245 31.4092 42.5646C31.4092 33.0992 20.8357 35.5008 20.8357 35.5008ZM24.0823 48.8131L23.96 37.8356C23.96 37.8356 28.4518 37.9468 28.4555 42.7092C28.4555 48.4499 24.086 48.8131 24.086 48.8131H24.0823ZM44.9032 39.2217L37.3538 39.5367L37.1945 63.4189L34.1073 63.619L34.4927 35.2265H44.6808L44.9032 39.2217ZM51.1183 34.678L42.383 62.9704L46.482 63.9785L49.1467 54.0498L57.3335 53.5569L60.3613 63.619L63.3892 63.1632L55.032 34.6817H51.122L51.1183 34.678ZM49.7693 51.7298L53.0751 39.4107L56.6478 51.2851L49.7693 51.7335V51.7298ZM78.0246 34.8374L82.346 34.9634V63.5412H77.7096L77.8542 50.5142L68.4592 50.5402L68.3443 63.5412H65.283L64.9977 34.8374H68.5926L68.474 48.2831L77.8727 48.4017L78.0209 34.8374H78.0246ZM104.612 35.0894L105.717 63.7302H101.206L100.732 41.5566L90.0695 63.5412H87.2306V35.0894H91.8039L91.2369 55.0542L101.14 35.0894H104.609H104.612ZM115.367 47.264L124.388 61.614L120.697 63.7265L114.608 50.9441V63.7265H110.601L110.824 34.867H114.608V44.0359L119.14 35.0116L121.579 36.2865L115.364 47.264H115.367ZM138.801 63.7302L143.941 63.6042L135.08 34.6187H130.347L125.27 63.7302H127.95L130.107 48.9058H134.395L138.801 63.7302ZM130.388 46.9823L131.515 39.2217L133.768 46.797L130.388 46.9786V46.9823ZM62.6517 13.3753L62.3293 18.2303L60.9729 18.1191L61.147 13.1974L54.6873 9.35791L55.8473 7.91624L61.1952 11.8521L61.4324 5.17372H63.2002L62.7555 11.8855L68.815 8.31279L69.4339 9.30603L62.6554 13.379L62.6517 13.3753ZM97.7263 75.1413L97.4039 79.9963L96.0474 79.8851L96.2216 74.9634L89.7619 71.1239L90.9219 69.6822L96.2698 73.6181L96.507 66.9397H98.2748L97.8301 73.6514L103.89 70.0788L104.508 71.072L97.73 75.145L97.7263 75.1413ZM16.1994 24.8383L16.9258 23.1335L22.8037 26.6765L21.8883 19.9648H23.6561L24.3602 26.6432L29.4302 22.7073L30.3715 23.7858L24.5196 28.1886L25.0162 32.9139L23.6672 33.0251L23.0297 28.3406L16.2031 24.842L16.1994 24.8383Z" fill="#292828"/>
</g>
<defs>
<clipPath id="clip0_146_3643">
<rect width="144" height="80" fill="white"/>
</clipPath>
</defs>
</svg>
