<svg width="24" height="24" viewBox="0 0 24 24" fill="none" xmlns="http://www.w3.org/2000/svg">
<g clip-path="url(#clip0_816_175)">
<path d="M22.5 11.2503C22.5015 10.4993 22.315 9.75985 21.9576 9.09936C21.6001 8.43887 21.083 7.87835 20.4535 7.46888C19.8239 7.05942 19.1019 6.81403 18.3532 6.75509C17.6045 6.69615 16.8529 6.82553 16.167 7.13144C15.4812 7.43734 14.8827 7.91005 14.4263 8.50646C13.9699 9.10288 13.67 9.80404 13.554 10.546C13.438 11.288 13.5095 12.0473 13.7621 12.7545C14.0147 13.4618 14.4402 14.0946 15 14.5953V21.7503L18 20.3375L21 21.7503V14.5953C21.4715 14.1748 21.8489 13.6595 22.1074 13.0831C22.3659 12.5066 22.4997 11.8821 22.5 11.2503ZM19.5 19.3861L18 18.68L16.5 19.3861V15.4878C17.4693 15.8379 18.5306 15.8379 19.5 15.4878V19.3861ZM18 14.2503C17.4066 14.2503 16.8266 14.0744 16.3333 13.7447C15.8399 13.4151 15.4554 12.9465 15.2284 12.3984C15.0013 11.8502 14.9419 11.247 15.0576 10.665C15.1734 10.0831 15.4591 9.54854 15.8787 9.12899C16.2982 8.70943 16.8328 8.42371 17.4147 8.30795C17.9967 8.19219 18.5999 8.2516 19.148 8.47867C19.6962 8.70573 20.1648 9.09025 20.4944 9.5836C20.824 10.0769 21 10.657 21 11.2503C20.9991 12.0457 20.6827 12.8082 20.1203 13.3706C19.5579 13.9331 18.7954 14.2494 18 14.2503Z" fill="#77B040"/>
<path d="M10.5 1.5C9.30693 1.50131 8.1631 1.97584 7.31947 2.81947C6.47584 3.6631 6.00131 4.80693 6 6V10.5H4.5C4.10232 10.5005 3.72105 10.6586 3.43984 10.9398C3.15864 11.2211 3.00046 11.6023 3 12V21C3.00046 21.3977 3.15864 21.779 3.43984 22.0602C3.72105 22.3414 4.10232 22.4995 4.5 22.5H12.75V21H4.5V12H11.25V10.5H7.5V6C7.4991 5.25598 7.77471 4.53817 8.27332 3.98593C8.77193 3.4337 9.45795 3.08645 10.1982 3.0116C10.9385 2.93675 11.6801 3.13965 12.2792 3.5809C12.8782 4.02214 13.2919 4.67026 13.44 5.3994L14.91 5.1006C14.7005 4.08514 14.1476 3.17282 13.3445 2.51707C12.5413 1.86132 11.5368 1.50216 10.5 1.5Z" fill="#77B040"/>
</g>
<defs>
<clipPath id="clip0_816_175">
<rect width="24" height="24" fill="white"/>
</clipPath>
</defs>
</svg>
